<svg width="192" height="192" viewBox="0 0 192 192" fill="none" xmlns="http://www.w3.org/2000/svg">
<rect width="192" height="192" rx="30" fill="#1C1C1C"/>
<g filter="url(#filter0_d_30_2)">
<rect x="6" y="102" width="180" height="40" rx="10" fill="#FF9800"/>
<path d="M43.7955 127.443V118.068H45.3864V127.443H43.7955ZM39.9034 123.551V121.96H49.2784V123.551H39.9034ZM70.104 115.455V130H68.3995L60.4734 118.58H60.3313V130H58.57V115.455H60.2745L68.229 126.903H68.3711V115.455H70.104ZM77.9751 130.227C76.924 130.227 76.0173 129.995 75.255 129.531C74.4974 129.062 73.9126 128.409 73.5007 127.571C73.0935 126.728 72.8899 125.748 72.8899 124.631C72.8899 123.513 73.0935 122.528 73.5007 121.676C73.9126 120.819 74.4856 120.152 75.2195 119.673C75.9581 119.19 76.8198 118.949 77.8047 118.949C78.3729 118.949 78.9339 119.044 79.4879 119.233C80.0419 119.422 80.5462 119.73 81.0007 120.156C81.4553 120.578 81.8175 121.136 82.0874 121.832C82.3572 122.528 82.4922 123.385 82.4922 124.403V125.114H74.0831V123.665H80.7876C80.7876 123.049 80.6645 122.5 80.4183 122.017C80.1768 121.534 79.8312 121.153 79.3814 120.874C78.9363 120.594 78.4107 120.455 77.8047 120.455C77.1371 120.455 76.5594 120.62 76.0717 120.952C75.5888 121.278 75.2171 121.705 74.9567 122.23C74.6963 122.756 74.5661 123.319 74.5661 123.92V124.886C74.5661 125.71 74.7081 126.409 74.9922 126.982C75.281 127.55 75.6811 127.983 76.1925 128.281C76.7038 128.575 77.2981 128.722 77.9751 128.722C78.4155 128.722 78.8132 128.66 79.1683 128.537C79.5282 128.409 79.8383 128.22 80.0987 127.969C80.3591 127.713 80.5604 127.396 80.7024 127.017L82.3217 127.472C82.1513 128.021 81.8648 128.504 81.4624 128.92C81.0599 129.332 80.5627 129.654 79.9709 129.886C79.379 130.114 78.7138 130.227 77.9751 130.227ZM87.5135 130L84.1896 119.091H85.951L88.3089 127.443H88.4226L90.7521 119.091H92.5419L94.843 127.415H94.9567L97.3146 119.091H99.076L95.7521 130H94.1044L91.718 121.619H91.5476L89.1612 130H87.5135ZM118.678 115.455V130H116.974L109.048 118.58H108.906V130H107.144V115.455H108.849L116.803 126.903H116.945V115.455H118.678ZM126.407 130.227C125.422 130.227 124.558 129.993 123.815 129.524C123.076 129.055 122.499 128.4 122.082 127.557C121.67 126.714 121.464 125.729 121.464 124.602C121.464 123.466 121.67 122.474 122.082 121.626C122.499 120.779 123.076 120.121 123.815 119.652C124.558 119.183 125.422 118.949 126.407 118.949C127.392 118.949 128.254 119.183 128.993 119.652C129.736 120.121 130.314 120.779 130.725 121.626C131.142 122.474 131.35 123.466 131.35 124.602C131.35 125.729 131.142 126.714 130.725 127.557C130.314 128.4 129.736 129.055 128.993 129.524C128.254 129.993 127.392 130.227 126.407 130.227ZM126.407 128.722C127.155 128.722 127.771 128.53 128.254 128.146C128.737 127.763 129.094 127.259 129.326 126.634C129.558 126.009 129.674 125.331 129.674 124.602C129.674 123.873 129.558 123.194 129.326 122.564C129.094 121.934 128.737 121.425 128.254 121.037C127.771 120.649 127.155 120.455 126.407 120.455C125.659 120.455 125.044 120.649 124.561 121.037C124.078 121.425 123.72 121.934 123.488 122.564C123.256 123.194 123.14 123.873 123.14 124.602C123.14 125.331 123.256 126.009 123.488 126.634C123.72 127.259 124.078 127.763 124.561 128.146C125.044 128.53 125.659 128.722 126.407 128.722ZM138.653 119.091V120.511H133V119.091H138.653ZM134.648 116.477H136.324V126.875C136.324 127.348 136.393 127.704 136.53 127.94C136.672 128.172 136.852 128.329 137.07 128.409C137.292 128.485 137.527 128.523 137.773 128.523C137.957 128.523 138.109 128.513 138.227 128.494C138.346 128.471 138.44 128.452 138.511 128.438L138.852 129.943C138.739 129.986 138.58 130.028 138.376 130.071C138.173 130.118 137.915 130.142 137.602 130.142C137.129 130.142 136.665 130.04 136.21 129.837C135.76 129.633 135.386 129.323 135.088 128.906C134.795 128.49 134.648 127.964 134.648 127.33V116.477ZM145.631 130.227C144.58 130.227 143.674 129.995 142.911 129.531C142.154 129.062 141.569 128.409 141.157 127.571C140.75 126.728 140.546 125.748 140.546 124.631C140.546 123.513 140.75 122.528 141.157 121.676C141.569 120.819 142.142 120.152 142.876 119.673C143.614 119.19 144.476 118.949 145.461 118.949C146.029 118.949 146.59 119.044 147.144 119.233C147.698 119.422 148.202 119.73 148.657 120.156C149.112 120.578 149.474 121.136 149.744 121.832C150.013 122.528 150.148 123.385 150.148 124.403V125.114H141.739V123.665H148.444C148.444 123.049 148.321 122.5 148.075 122.017C147.833 121.534 147.487 121.153 147.038 120.874C146.593 120.594 146.067 120.455 145.461 120.455C144.793 120.455 144.216 120.62 143.728 120.952C143.245 121.278 142.873 121.705 142.613 122.23C142.353 122.756 142.222 123.319 142.222 123.92V124.886C142.222 125.71 142.364 126.409 142.648 126.982C142.937 127.55 143.337 127.983 143.849 128.281C144.36 128.575 144.954 128.722 145.631 128.722C146.072 128.722 146.469 128.66 146.825 128.537C147.184 128.409 147.495 128.22 147.755 127.969C148.015 127.713 148.217 127.396 148.359 127.017L149.978 127.472C149.808 128.021 149.521 128.504 149.119 128.92C148.716 129.332 148.219 129.654 147.627 129.886C147.035 130.114 146.37 130.227 145.631 130.227Z" fill="#0F0F0F"/>
</g>
<path d="M17.408 68.48C17.408 67.1147 17.6427 65.7707 18.112 64.448C18.6027 63.104 19.3067 61.888 20.224 60.8C21.1413 59.6907 22.2613 58.8053 23.584 58.144C24.928 57.4827 26.4533 57.152 28.16 57.152C30.1867 57.152 31.9147 57.6213 33.344 58.56C34.7733 59.4773 35.84 60.6613 36.544 62.112L35.2 62.88C34.6667 61.8347 34.0053 61.0027 33.216 60.384C32.448 59.7653 31.616 59.328 30.72 59.072C29.824 58.7947 28.928 58.656 28.032 58.656C26.6027 58.656 25.3227 58.944 24.192 59.52C23.0827 60.096 22.144 60.864 21.376 61.824C20.608 62.784 20.0213 63.8507 19.616 65.024C19.232 66.1973 19.04 67.3813 19.04 68.576C19.04 69.92 19.2747 71.2 19.744 72.416C20.2133 73.6107 20.8533 74.6773 21.664 75.616C22.496 76.5547 23.456 77.3013 24.544 77.856C25.6533 78.4107 26.848 78.688 28.128 78.688C29.0453 78.688 29.9733 78.5387 30.912 78.24C31.872 77.92 32.768 77.44 33.6 76.8C34.432 76.1387 35.104 75.2853 35.616 74.24L37.024 74.912C36.5333 76.0427 35.7973 77.0027 34.816 77.792C33.8347 78.5813 32.7467 79.1787 31.552 79.584C30.3573 79.9893 29.1733 80.192 28 80.192C26.464 80.192 25.0453 79.8613 23.744 79.2C22.4427 78.5173 21.312 77.6213 20.352 76.512C19.4133 75.3813 18.688 74.1227 18.176 72.736C17.664 71.328 17.408 69.9093 17.408 68.48ZM47.5658 80.32C46.3924 80.32 45.3044 80.096 44.3018 79.648C43.3204 79.2 42.4671 78.5813 41.7418 77.792C41.0164 76.9813 40.4511 76.0533 40.0458 75.008C39.6404 73.9627 39.4378 72.864 39.4378 71.712C39.4378 70.5387 39.6404 69.44 40.0458 68.416C40.4511 67.3707 41.0164 66.4533 41.7418 65.664C42.4884 64.8533 43.3524 64.224 44.3338 63.776C45.3364 63.3067 46.4138 63.072 47.5658 63.072C48.7178 63.072 49.7844 63.3067 50.7658 63.776C51.7471 64.224 52.6111 64.8533 53.3578 65.664C54.1044 66.4533 54.6804 67.3707 55.0858 68.416C55.4911 69.44 55.6938 70.5387 55.6938 71.712C55.6938 72.864 55.4911 73.9627 55.0858 75.008C54.6804 76.0533 54.1044 76.9813 53.3578 77.792C52.6324 78.5813 51.7684 79.2 50.7658 79.648C49.7844 80.096 48.7178 80.32 47.5658 80.32ZM41.0378 71.776C41.0378 73.0773 41.3258 74.272 41.9018 75.36C42.4991 76.4267 43.2884 77.28 44.2698 77.92C45.2511 78.56 46.3391 78.88 47.5338 78.88C48.7284 78.88 49.8164 78.56 50.7978 77.92C51.8004 77.2587 52.5898 76.384 53.1658 75.296C53.7631 74.1867 54.0618 72.9813 54.0618 71.68C54.0618 70.3787 53.7631 69.184 53.1658 68.096C52.5898 67.008 51.8004 66.144 50.7978 65.504C49.8164 64.8427 48.7391 64.512 47.5658 64.512C46.3711 64.512 45.2831 64.8427 44.3018 65.504C43.3204 66.1653 42.5311 67.04 41.9338 68.128C41.3364 69.216 41.0378 70.432 41.0378 71.776ZM66.5033 80.32C65.3299 80.32 64.2419 80.096 63.2393 79.648C62.2579 79.2 61.4046 78.5813 60.6793 77.792C59.9539 76.9813 59.3886 76.0533 58.9833 75.008C58.5779 73.9627 58.3753 72.864 58.3753 71.712C58.3753 70.5387 58.5779 69.44 58.9833 68.416C59.3886 67.3707 59.9539 66.4533 60.6793 65.664C61.4259 64.8533 62.2899 64.224 63.2713 63.776C64.2739 63.3067 65.3513 63.072 66.5033 63.072C67.6553 63.072 68.7219 63.3067 69.7033 63.776C70.6846 64.224 71.5486 64.8533 72.2953 65.664C73.0419 66.4533 73.6179 67.3707 74.0233 68.416C74.4286 69.44 74.6313 70.5387 74.6313 71.712C74.6313 72.864 74.4286 73.9627 74.0233 75.008C73.6179 76.0533 73.0419 76.9813 72.2953 77.792C71.5699 78.5813 70.7059 79.2 69.7033 79.648C68.7219 80.096 67.6553 80.32 66.5033 80.32ZM59.9753 71.776C59.9753 73.0773 60.2633 74.272 60.8393 75.36C61.4366 76.4267 62.2259 77.28 63.2073 77.92C64.1886 78.56 65.2766 78.88 66.4713 78.88C67.6659 78.88 68.7539 78.56 69.7353 77.92C70.7379 77.2587 71.5273 76.384 72.1033 75.296C72.7006 74.1867 72.9993 72.9813 72.9993 71.68C72.9993 70.3787 72.7006 69.184 72.1033 68.096C71.5273 67.008 70.7379 66.144 69.7353 65.504C68.7539 64.8427 67.6766 64.512 66.5033 64.512C65.3086 64.512 64.2206 64.8427 63.2393 65.504C62.2579 66.1653 61.4686 67.04 60.8713 68.128C60.2739 69.216 59.9753 70.432 59.9753 71.776ZM78.5928 56.64H80.2248V76.704C80.2248 77.472 80.3848 78.0053 80.7048 78.304C81.0248 78.5813 81.4408 78.72 81.9528 78.72C82.2941 78.72 82.6461 78.688 83.0088 78.624C83.3714 78.56 83.6914 78.4747 83.9688 78.368L84.2888 79.68C83.9261 79.808 83.4781 79.9253 82.9448 80.032C82.4114 80.1387 81.9528 80.192 81.5688 80.192C80.6728 80.192 79.9474 79.9253 79.3928 79.392C78.8594 78.8373 78.5928 78.1013 78.5928 77.184V56.64ZM88.858 60.32V80H87.226V57.28H88.57L104.41 77.28V57.28H106.042V80H104.442L88.858 60.32ZM118.222 80.32C117.049 80.32 115.961 80.096 114.958 79.648C113.977 79.2 113.123 78.5813 112.398 77.792C111.673 76.9813 111.107 76.0533 110.702 75.008C110.297 73.9627 110.094 72.864 110.094 71.712C110.094 70.5387 110.297 69.44 110.702 68.416C111.107 67.3707 111.673 66.4533 112.398 65.664C113.145 64.8533 114.009 64.224 114.99 63.776C115.993 63.3067 117.07 63.072 118.222 63.072C119.374 63.072 120.441 63.3067 121.422 63.776C122.403 64.224 123.267 64.8533 124.014 65.664C124.761 66.4533 125.337 67.3707 125.742 68.416C126.147 69.44 126.35 70.5387 126.35 71.712C126.35 72.864 126.147 73.9627 125.742 75.008C125.337 76.0533 124.761 76.9813 124.014 77.792C123.289 78.5813 122.425 79.2 121.422 79.648C120.441 80.096 119.374 80.32 118.222 80.32ZM111.694 71.776C111.694 73.0773 111.982 74.272 112.558 75.36C113.155 76.4267 113.945 77.28 114.926 77.92C115.907 78.56 116.995 78.88 118.19 78.88C119.385 78.88 120.473 78.56 121.454 77.92C122.457 77.2587 123.246 76.384 123.822 75.296C124.419 74.1867 124.718 72.9813 124.718 71.68C124.718 70.3787 124.419 69.184 123.822 68.096C123.246 67.008 122.457 66.144 121.454 65.504C120.473 64.8427 119.395 64.512 118.222 64.512C117.027 64.512 115.939 64.8427 114.958 65.504C113.977 66.1653 113.187 67.04 112.59 68.128C111.993 69.216 111.694 70.432 111.694 71.776ZM137.389 79.2C137.282 79.2427 137.069 79.3493 136.749 79.52C136.429 79.6907 136.023 79.8507 135.533 80C135.042 80.128 134.498 80.192 133.901 80.192C133.325 80.192 132.781 80.0853 132.269 79.872C131.778 79.6373 131.383 79.296 131.085 78.848C130.786 78.4 130.637 77.856 130.637 77.216V64.672H128.301V63.36H130.637V57.664H132.237V63.36H136.109V64.672H132.237V76.832C132.279 77.4507 132.503 77.92 132.909 78.24C133.314 78.5387 133.783 78.688 134.317 78.688C134.978 78.688 135.554 78.5813 136.045 78.368C136.535 78.1333 136.823 77.984 136.909 77.92L137.389 79.2ZM146.974 80.32C145.801 80.32 144.713 80.096 143.71 79.648C142.708 79.1787 141.833 78.5493 141.086 77.76C140.361 76.9493 139.785 76.0213 139.358 74.976C138.953 73.9093 138.75 72.7893 138.75 71.616C138.75 70.0373 139.102 68.608 139.806 67.328C140.51 66.048 141.481 65.024 142.718 64.256C143.956 63.4667 145.342 63.072 146.878 63.072C148.457 63.072 149.854 63.4667 151.07 64.256C152.286 65.0453 153.246 66.0907 153.95 67.392C154.676 68.672 155.038 70.08 155.038 71.616C155.038 71.744 155.038 71.872 155.038 72C155.038 72.128 155.028 72.2347 155.006 72.32H140.414C140.5 73.5787 140.852 74.72 141.47 75.744C142.089 76.768 142.878 77.5787 143.838 78.176C144.82 78.752 145.886 79.04 147.038 79.04C148.19 79.04 149.278 78.7413 150.302 78.144C151.326 77.5467 152.041 76.7787 152.446 75.84L153.854 76.224C153.534 77.0133 153.022 77.7173 152.318 78.336C151.636 78.9547 150.825 79.4453 149.886 79.808C148.969 80.1493 147.998 80.32 146.974 80.32ZM140.35 71.072H153.502C153.417 69.7707 153.076 68.6187 152.478 67.616C151.881 66.6133 151.092 65.824 150.11 65.248C149.15 64.672 148.084 64.384 146.91 64.384C145.737 64.384 144.67 64.672 143.71 65.248C142.75 65.824 141.972 66.6133 141.374 67.616C140.777 68.6187 140.436 69.7707 140.35 71.072ZM163.807 80.32C162.484 80.32 161.257 80.096 160.127 79.648C158.996 79.2 158.004 78.5173 157.151 77.6L157.887 76.48C158.804 77.3547 159.732 77.9947 160.671 78.4C161.609 78.784 162.633 78.976 163.743 78.976C165.172 78.976 166.324 78.6773 167.199 78.08C168.095 77.4827 168.543 76.6507 168.543 75.584C168.543 74.8587 168.329 74.304 167.903 73.92C167.497 73.5147 166.9 73.1947 166.111 72.96C165.343 72.704 164.404 72.4373 163.295 72.16C162.164 71.8613 161.204 71.552 160.415 71.232C159.647 70.912 159.071 70.496 158.687 69.984C158.303 69.472 158.111 68.7787 158.111 67.904C158.111 66.816 158.377 65.92 158.911 65.216C159.465 64.4907 160.201 63.9573 161.119 63.616C162.057 63.2533 163.092 63.072 164.223 63.072C165.524 63.072 166.655 63.2853 167.615 63.712C168.596 64.1387 169.343 64.704 169.855 65.408L168.991 66.432C168.457 65.7493 167.764 65.248 166.911 64.928C166.057 64.5867 165.119 64.416 164.095 64.416C163.327 64.416 162.601 64.5227 161.919 64.736C161.236 64.9493 160.681 65.3013 160.255 65.792C159.849 66.2613 159.647 66.9013 159.647 67.712C159.647 68.352 159.796 68.8533 160.095 69.216C160.415 69.5787 160.884 69.8773 161.503 70.112C162.121 70.3253 162.889 70.56 163.807 70.816C165.108 71.136 166.228 71.4667 167.167 71.808C168.105 72.1493 168.831 72.5973 169.343 73.152C169.855 73.6853 170.111 74.4427 170.111 75.424C170.111 76.9387 169.535 78.1333 168.383 79.008C167.231 79.8827 165.705 80.32 163.807 80.32Z" fill="#FF9800"/>
<defs>
<filter id="filter0_d_30_2" x="3" y="101" width="186" height="46" filterUnits="userSpaceOnUse" color-interpolation-filters="sRGB">
<feFlood flood-opacity="0" result="BackgroundImageFix"/>
<feColorMatrix in="SourceAlpha" type="matrix" values="0 0 0 0 0 0 0 0 0 0 0 0 0 0 0 0 0 0 127 0" result="hardAlpha"/>
<feOffset dy="2"/>
<feGaussianBlur stdDeviation="1.5"/>
<feComposite in2="hardAlpha" operator="out"/>
<feColorMatrix type="matrix" values="0 0 0 0 1 0 0 0 0 0.596078 0 0 0 0 0 0 0 0 1 0"/>
<feBlend mode="normal" in2="BackgroundImageFix" result="effect1_dropShadow_30_2"/>
<feBlend mode="normal" in="SourceGraphic" in2="effect1_dropShadow_30_2" result="shape"/>
</filter>
</defs>
</svg>
