<svg width="512" height="512" viewBox="0 0 512 512" fill="none" xmlns="http://www.w3.org/2000/svg">
<rect width="512" height="512" rx="30" fill="#1C1C1C"/>
<path d="M101.816 210.96C101.816 208.229 102.285 205.541 103.224 202.896C104.205 200.208 105.613 197.776 107.448 195.6C109.283 193.381 111.523 191.611 114.168 190.288C116.856 188.965 119.907 188.304 123.32 188.304C127.373 188.304 130.829 189.243 133.688 191.12C136.547 192.955 138.68 195.323 140.088 198.224L137.4 199.76C136.333 197.669 135.011 196.005 133.432 194.768C131.896 193.531 130.232 192.656 128.44 192.144C126.648 191.589 124.856 191.312 123.064 191.312C120.205 191.312 117.645 191.888 115.384 193.04C113.165 194.192 111.288 195.728 109.752 197.648C108.216 199.568 107.043 201.701 106.232 204.048C105.464 206.395 105.08 208.763 105.08 211.152C105.08 213.84 105.549 216.4 106.488 218.832C107.427 221.221 108.707 223.355 110.328 225.232C111.992 227.109 113.912 228.603 116.088 229.712C118.307 230.821 120.696 231.376 123.256 231.376C125.091 231.376 126.947 231.077 128.824 230.48C130.744 229.84 132.536 228.88 134.2 227.6C135.864 226.277 137.208 224.571 138.232 222.48L141.048 223.824C140.067 226.085 138.595 228.005 136.632 229.584C134.669 231.163 132.493 232.357 130.104 233.168C127.715 233.979 125.347 234.384 123 234.384C119.928 234.384 117.091 233.723 114.488 232.4C111.885 231.035 109.624 229.243 107.704 227.024C105.827 224.763 104.376 222.245 103.352 219.472C102.328 216.656 101.816 213.819 101.816 210.96ZM162.132 234.64C159.785 234.64 157.609 234.192 155.604 233.296C153.641 232.4 151.934 231.163 150.484 229.584C149.033 227.963 147.902 226.107 147.092 224.016C146.281 221.925 145.876 219.728 145.876 217.424C145.876 215.077 146.281 212.88 147.092 210.832C147.902 208.741 149.033 206.907 150.484 205.328C151.977 203.707 153.705 202.448 155.668 201.552C157.673 200.613 159.828 200.144 162.132 200.144C164.436 200.144 166.569 200.613 168.532 201.552C170.494 202.448 172.222 203.707 173.716 205.328C175.209 206.907 176.361 208.741 177.172 210.832C177.982 212.88 178.388 215.077 178.388 217.424C178.388 219.728 177.982 221.925 177.172 224.016C176.361 226.107 175.209 227.963 173.716 229.584C172.265 231.163 170.537 232.4 168.532 233.296C166.569 234.192 164.436 234.64 162.132 234.64ZM149.076 217.552C149.076 220.155 149.652 222.544 150.804 224.72C151.998 226.853 153.577 228.56 155.54 229.84C157.502 231.12 159.678 231.76 162.068 231.76C164.457 231.76 166.633 231.12 168.596 229.84C170.601 228.517 172.18 226.768 173.332 224.592C174.526 222.373 175.124 219.963 175.124 217.36C175.124 214.757 174.526 212.368 173.332 210.192C172.18 208.016 170.601 206.288 168.596 205.008C166.633 203.685 164.478 203.024 162.132 203.024C159.742 203.024 157.566 203.685 155.604 205.008C153.641 206.331 152.062 208.08 150.868 210.256C149.673 212.432 149.076 214.864 149.076 217.552ZM200.007 234.64C197.66 234.64 195.484 234.192 193.479 233.296C191.516 232.4 189.809 231.163 188.359 229.584C186.908 227.963 185.777 226.107 184.967 224.016C184.156 221.925 183.751 219.728 183.751 217.424C183.751 215.077 184.156 212.88 184.967 210.832C185.777 208.741 186.908 206.907 188.359 205.328C189.852 203.707 191.58 202.448 193.543 201.552C195.548 200.613 197.703 200.144 200.007 200.144C202.311 200.144 204.444 200.613 206.407 201.552C208.369 202.448 210.097 203.707 211.591 205.328C213.084 206.907 214.236 208.741 215.047 210.832C215.857 212.88 216.263 215.077 216.263 217.424C216.263 219.728 215.857 221.925 215.047 224.016C214.236 226.107 213.084 227.963 211.591 229.584C210.14 231.163 208.412 232.4 206.407 233.296C204.444 234.192 202.311 234.64 200.007 234.64ZM186.951 217.552C186.951 220.155 187.527 222.544 188.679 224.72C189.873 226.853 191.452 228.56 193.415 229.84C195.377 231.12 197.553 231.76 199.943 231.76C202.332 231.76 204.508 231.12 206.471 229.84C208.476 228.517 210.055 226.768 211.207 224.592C212.401 222.373 212.999 219.963 212.999 217.36C212.999 214.757 212.401 212.368 211.207 210.192C210.055 208.016 208.476 206.288 206.471 205.008C204.508 203.685 202.353 203.024 200.007 203.024C197.617 203.024 195.441 203.685 193.479 205.008C191.516 206.331 189.937 208.08 188.743 210.256C187.548 212.432 186.951 214.864 186.951 217.552ZM224.186 187.28H227.45V227.408C227.45 228.944 227.77 230.011 228.41 230.608C229.05 231.163 229.882 231.44 230.906 231.44C231.588 231.44 232.292 231.376 233.018 231.248C233.743 231.12 234.383 230.949 234.938 230.736L235.578 233.36C234.852 233.616 233.956 233.851 232.89 234.064C231.823 234.277 230.906 234.384 230.138 234.384C228.346 234.384 226.895 233.851 225.786 232.784C224.719 231.675 224.186 230.203 224.186 228.368V187.28ZM244.716 194.64V234H241.452V188.56H244.14L275.82 228.56V188.56H279.084V234H275.884L244.716 194.64ZM303.444 234.64C301.097 234.64 298.921 234.192 296.916 233.296C294.953 232.4 293.247 231.163 291.796 229.584C290.345 227.963 289.215 226.107 288.404 224.016C287.593 221.925 287.188 219.728 287.188 217.424C287.188 215.077 287.593 212.88 288.404 210.832C289.215 208.741 290.345 206.907 291.796 205.328C293.289 203.707 295.017 202.448 296.98 201.552C298.985 200.613 301.14 200.144 303.444 200.144C305.748 200.144 307.881 200.613 309.844 201.552C311.807 202.448 313.535 203.707 315.028 205.328C316.521 206.907 317.673 208.741 318.484 210.832C319.295 212.88 319.7 215.077 319.7 217.424C319.7 219.728 319.295 221.925 318.484 224.016C317.673 226.107 316.521 227.963 315.028 229.584C313.577 231.163 311.849 232.4 309.844 233.296C307.881 234.192 305.748 234.64 303.444 234.64ZM290.388 217.552C290.388 220.155 290.964 222.544 292.116 224.72C293.311 226.853 294.889 228.56 296.852 229.84C298.815 231.12 300.991 231.76 303.38 231.76C305.769 231.76 307.945 231.12 309.908 229.84C311.913 228.517 313.492 226.768 314.644 224.592C315.839 222.373 316.436 219.963 316.436 217.36C316.436 214.757 315.839 212.368 314.644 210.192C313.492 208.016 311.913 206.288 309.908 205.008C307.945 203.685 305.791 203.024 303.444 203.024C301.055 203.024 298.879 203.685 296.916 205.008C294.953 206.331 293.375 208.08 292.18 210.256C290.985 212.432 290.388 214.864 290.388 217.552ZM341.778 232.4C341.564 232.485 341.138 232.699 340.498 233.04C339.858 233.381 339.047 233.701 338.066 234C337.084 234.256 335.996 234.384 334.802 234.384C333.65 234.384 332.562 234.171 331.538 233.744C330.556 233.275 329.767 232.592 329.17 231.696C328.572 230.8 328.274 229.712 328.274 228.432V203.344H323.602V200.72H328.274V189.328H331.474V200.72H339.218V203.344H331.474V227.664C331.559 228.901 332.007 229.84 332.818 230.48C333.628 231.077 334.567 231.376 335.634 231.376C336.956 231.376 338.108 231.163 339.09 230.736C340.071 230.267 340.647 229.968 340.818 229.84L341.778 232.4ZM360.949 234.64C358.602 234.64 356.426 234.192 354.421 233.296C352.415 232.357 350.666 231.099 349.173 229.52C347.722 227.899 346.57 226.043 345.717 223.952C344.906 221.819 344.501 219.579 344.501 217.232C344.501 214.075 345.205 211.216 346.613 208.656C348.021 206.096 349.962 204.048 352.437 202.512C354.911 200.933 357.685 200.144 360.757 200.144C363.914 200.144 366.709 200.933 369.141 202.512C371.573 204.091 373.493 206.181 374.901 208.784C376.351 211.344 377.076 214.16 377.076 217.232C377.076 217.488 377.076 217.744 377.076 218C377.076 218.256 377.055 218.469 377.013 218.64H347.829C347.999 221.157 348.703 223.44 349.941 225.488C351.178 227.536 352.757 229.157 354.677 230.352C356.639 231.504 358.773 232.08 361.077 232.08C363.381 232.08 365.557 231.483 367.605 230.288C369.653 229.093 371.082 227.557 371.893 225.68L374.708 226.448C374.069 228.027 373.045 229.435 371.637 230.672C370.271 231.909 368.65 232.891 366.773 233.616C364.938 234.299 362.997 234.64 360.949 234.64ZM347.701 216.144H374.005C373.834 213.541 373.151 211.237 371.957 209.232C370.762 207.227 369.183 205.648 367.221 204.496C365.301 203.344 363.167 202.768 360.821 202.768C358.474 202.768 356.341 203.344 354.421 204.496C352.501 205.648 350.943 207.227 349.749 209.232C348.554 211.237 347.871 213.541 347.701 216.144ZM394.613 234.64C391.968 234.64 389.514 234.192 387.253 233.296C384.992 232.4 383.008 231.035 381.301 229.2L382.773 226.96C384.608 228.709 386.464 229.989 388.341 230.8C390.218 231.568 392.266 231.952 394.485 231.952C397.344 231.952 399.648 231.355 401.397 230.16C403.189 228.965 404.085 227.301 404.085 225.168C404.085 223.717 403.658 222.608 402.805 221.84C401.994 221.029 400.8 220.389 399.221 219.92C397.685 219.408 395.808 218.875 393.589 218.32C391.328 217.723 389.408 217.104 387.829 216.464C386.293 215.824 385.141 214.992 384.373 213.968C383.605 212.944 383.221 211.557 383.221 209.808C383.221 207.632 383.754 205.84 384.821 204.432C385.93 202.981 387.402 201.915 389.237 201.232C391.114 200.507 393.184 200.144 395.445 200.144C398.048 200.144 400.309 200.571 402.229 201.424C404.192 202.277 405.685 203.408 406.709 204.816L404.981 206.864C403.914 205.499 402.528 204.496 400.821 203.856C399.114 203.173 397.237 202.832 395.189 202.832C393.653 202.832 392.202 203.045 390.837 203.472C389.472 203.899 388.362 204.603 387.509 205.584C386.698 206.523 386.293 207.803 386.293 209.424C386.293 210.704 386.592 211.707 387.189 212.432C387.829 213.157 388.768 213.755 390.005 214.224C391.242 214.651 392.778 215.12 394.613 215.632C397.216 216.272 399.456 216.933 401.333 217.616C403.21 218.299 404.661 219.195 405.685 220.304C406.709 221.371 407.221 222.885 407.221 224.848C407.221 227.877 406.069 230.267 403.765 232.016C401.461 233.765 398.41 234.64 394.613 234.64Z" fill="#FF9800"/>
<g filter="url(#filter0_d_30_20)">
<rect x="166" y="299" width="180" height="40" rx="10" fill="#FF9800"/>
<path d="M203.795 324.443V315.068H205.386V324.443H203.795ZM199.903 320.551V318.96H209.278V320.551H199.903ZM230.104 312.455V327H228.4L220.473 315.58H220.331V327H218.57V312.455H220.275L228.229 323.903H228.371V312.455H230.104ZM237.975 327.227C236.924 327.227 236.017 326.995 235.255 326.531C234.497 326.062 233.913 325.409 233.501 324.571C233.094 323.728 232.89 322.748 232.89 321.631C232.89 320.513 233.094 319.528 233.501 318.676C233.913 317.819 234.486 317.152 235.219 316.673C235.958 316.19 236.82 315.949 237.805 315.949C238.373 315.949 238.934 316.044 239.488 316.233C240.042 316.422 240.546 316.73 241.001 317.156C241.455 317.578 241.817 318.136 242.087 318.832C242.357 319.528 242.492 320.385 242.492 321.403V322.114H234.083V320.665H240.788C240.788 320.049 240.665 319.5 240.418 319.017C240.177 318.534 239.831 318.153 239.381 317.874C238.936 317.594 238.411 317.455 237.805 317.455C237.137 317.455 236.559 317.62 236.072 317.952C235.589 318.278 235.217 318.705 234.957 319.23C234.696 319.756 234.566 320.319 234.566 320.92V321.886C234.566 322.71 234.708 323.409 234.992 323.982C235.281 324.55 235.681 324.983 236.192 325.281C236.704 325.575 237.298 325.722 237.975 325.722C238.415 325.722 238.813 325.66 239.168 325.537C239.528 325.409 239.838 325.22 240.099 324.969C240.359 324.713 240.56 324.396 240.702 324.017L242.322 324.472C242.151 325.021 241.865 325.504 241.462 325.92C241.06 326.332 240.563 326.654 239.971 326.886C239.379 327.114 238.714 327.227 237.975 327.227ZM247.513 327L244.19 316.091H245.951L248.309 324.443H248.423L250.752 316.091H252.542L254.843 324.415H254.957L257.315 316.091H259.076L255.752 327H254.104L251.718 318.619H251.548L249.161 327H247.513ZM278.678 312.455V327H276.974L269.048 315.58H268.906V327H267.144V312.455H268.849L276.803 323.903H276.945V312.455H278.678ZM286.407 327.227C285.422 327.227 284.558 326.993 283.815 326.524C283.076 326.055 282.499 325.4 282.082 324.557C281.67 323.714 281.464 322.729 281.464 321.602C281.464 320.466 281.67 319.474 282.082 318.626C282.499 317.779 283.076 317.121 283.815 316.652C284.558 316.183 285.422 315.949 286.407 315.949C287.392 315.949 288.254 316.183 288.993 316.652C289.736 317.121 290.314 317.779 290.725 318.626C291.142 319.474 291.35 320.466 291.35 321.602C291.35 322.729 291.142 323.714 290.725 324.557C290.314 325.4 289.736 326.055 288.993 326.524C288.254 326.993 287.392 327.227 286.407 327.227ZM286.407 325.722C287.155 325.722 287.771 325.53 288.254 325.146C288.737 324.763 289.094 324.259 289.326 323.634C289.558 323.009 289.674 322.331 289.674 321.602C289.674 320.873 289.558 320.194 289.326 319.564C289.094 318.934 288.737 318.425 288.254 318.037C287.771 317.649 287.155 317.455 286.407 317.455C285.659 317.455 285.044 317.649 284.561 318.037C284.078 318.425 283.72 318.934 283.488 319.564C283.256 320.194 283.14 320.873 283.14 321.602C283.14 322.331 283.256 323.009 283.488 323.634C283.72 324.259 284.078 324.763 284.561 325.146C285.044 325.53 285.659 325.722 286.407 325.722ZM298.653 316.091V317.511H293V316.091H298.653ZM294.648 313.477H296.324V323.875C296.324 324.348 296.393 324.704 296.53 324.94C296.672 325.172 296.852 325.329 297.07 325.409C297.292 325.485 297.527 325.523 297.773 325.523C297.957 325.523 298.109 325.513 298.227 325.494C298.346 325.471 298.44 325.452 298.511 325.438L298.852 326.943C298.739 326.986 298.58 327.028 298.376 327.071C298.173 327.118 297.915 327.142 297.602 327.142C297.129 327.142 296.665 327.04 296.21 326.837C295.76 326.633 295.386 326.323 295.088 325.906C294.795 325.49 294.648 324.964 294.648 324.33V313.477ZM305.631 327.227C304.58 327.227 303.674 326.995 302.911 326.531C302.154 326.062 301.569 325.409 301.157 324.571C300.75 323.728 300.546 322.748 300.546 321.631C300.546 320.513 300.75 319.528 301.157 318.676C301.569 317.819 302.142 317.152 302.876 316.673C303.614 316.19 304.476 315.949 305.461 315.949C306.029 315.949 306.59 316.044 307.144 316.233C307.698 316.422 308.202 316.73 308.657 317.156C309.112 317.578 309.474 318.136 309.744 318.832C310.013 319.528 310.148 320.385 310.148 321.403V322.114H301.739V320.665H308.444C308.444 320.049 308.321 319.5 308.075 319.017C307.833 318.534 307.487 318.153 307.038 317.874C306.593 317.594 306.067 317.455 305.461 317.455C304.793 317.455 304.216 317.62 303.728 317.952C303.245 318.278 302.873 318.705 302.613 319.23C302.353 319.756 302.222 320.319 302.222 320.92V321.886C302.222 322.71 302.364 323.409 302.648 323.982C302.937 324.55 303.337 324.983 303.849 325.281C304.36 325.575 304.954 325.722 305.631 325.722C306.072 325.722 306.469 325.66 306.825 325.537C307.184 325.409 307.495 325.22 307.755 324.969C308.015 324.713 308.217 324.396 308.359 324.017L309.978 324.472C309.808 325.021 309.521 325.504 309.119 325.92C308.716 326.332 308.219 326.654 307.627 326.886C307.035 327.114 306.37 327.227 305.631 327.227Z" fill="#0F0F0F"/>
</g>
<defs>
<filter id="filter0_d_30_20" x="163" y="298" width="186" height="46" filterUnits="userSpaceOnUse" color-interpolation-filters="sRGB">
<feFlood flood-opacity="0" result="BackgroundImageFix"/>
<feColorMatrix in="SourceAlpha" type="matrix" values="0 0 0 0 0 0 0 0 0 0 0 0 0 0 0 0 0 0 127 0" result="hardAlpha"/>
<feOffset dy="2"/>
<feGaussianBlur stdDeviation="1.5"/>
<feComposite in2="hardAlpha" operator="out"/>
<feColorMatrix type="matrix" values="0 0 0 0 1 0 0 0 0 0.596078 0 0 0 0 0 0 0 0 1 0"/>
<feBlend mode="normal" in2="BackgroundImageFix" result="effect1_dropShadow_30_20"/>
<feBlend mode="normal" in="SourceGraphic" in2="effect1_dropShadow_30_20" result="shape"/>
</filter>
</defs>
</svg>
